# xmcd
#
# Track frame offsets:
#	182
#	21040
#	43440
#	59617
#	84165
#	112810
#	142477
#	167905
#	188820
#	213167
#	232010
#	247997
#	262337
#	281375
#
# Disc length: 3945 seconds
#
# Revision: 1
# Processed by: cddbd v1.4PL0 Copyright (c) Steve Scherf et al.
# Submitted via: audiograbber 1.82.02
#
DISCID=d00f670e
DTITLE=Kym Mazelle - The Gold Collection
DYEAR=1996
DGENRE=R&B
TTITLE0=Woman Of The World
TTITLE1=No One Can Love You More Than Me (Boilerhouse Mix)
TTITLE2=Useless (I Don't Need You Now)
TTITLE3=Don't Scandalize My Name (US Remix)
TTITLE4=Love Strain
TTITLE5=Never In A Million Years (Doc and James Remix)
TTITLE6=Was That All It Was (Def Mix Edit)
TTITLE7=If It's Love You Want
TTITLE8=Skin I'm In
TTITLE9=Crazy 'bout The Man
TTITLE10=This Love Will Never Die
TTITLE11=Wait (Short)
TTITLE12=Just What It Takes
TTITLE13=Got To Get You Back
EXTD=
EXTT0=
EXTT1=
EXTT2=
EXTT3=
EXTT4=
EXTT5=
EXTT6=
EXTT7=
EXTT8=
EXTT9=
EXTT10=
EXTT11=
EXTT12=
EXTT13=
PLAYORDER=
